HIERARCHY
ROOT Hips
{
  OFFSET -35.2597 29.1586 114.425
  CHANNELS 6 Xposition Yposition Zposition Zrotation Xrotation Yrotation
  JOINT LeftUpLeg
  {
    OFFSET 8.64259 1.95398 -2.38835
    CHANNELS 3 Zrotation Xrotation Yrotation
    JOINT LeftLeg
    {
      OFFSET 43.7702 0 0
      CHANNELS 3 Zrotation Xrotation Yrotation
      JOINT LeftFoot
      {
        OFFSET 40.6238 0 0
        CHANNELS 3 Zrotation Xrotation Yrotation
        JOINT LeftToeBase
        {
          OFFSET 12.7242 0 0
          CHANNELS 3 Zrotation Xrotation Yrotation
          End Site
          {
            OFFSET 0 0 0
          }
        }
      }
    }
  }
  JOINT RightUpLeg
  {
    OFFSET -8.2249 1.95398 -2.59336
    CHANNELS 3 Zrotation Xrotation Yrotation
    JOINT RightLeg
    {
      OFFSET 43.5653 0 0
      CHANNELS 3 Zrotation Xrotation Yrotation
      JOINT RightFoot
      {
        OFFSET 40.6238 0 0
        CHANNELS 3 Zrotation Xrotation Yrotation
        JOINT RightToeBase
        {
          OFFSET 12.7242 0 0
          CHANNELS 3 Zrotation Xrotation Yrotation
          End Site
          {
            OFFSET 0 0 0
          }
        }
      }
    }
  }
  JOINT Spine
  {
    OFFSET 0.165834 0.87714 6.61349
    CHANNELS 3 Zrotation Xrotation Yrotation
    JOINT Spine1
    {
      OFFSET 7.38963 1.71661e-005 0
      CHANNELS 3 Zrotation Xrotation Yrotation
      JOINT Spine2
      {
        OFFSET 11.9445 1.14441e-005 0
        CHANNELS 3 Zrotation Xrotation Yrotation
        JOINT Spine3
        {
          OFFSET 14.7254 4.19617e-005 0
          CHANNELS 3 Zrotation Xrotation Yrotation
          JOINT Spine4
          {
            OFFSET 10.9679 0 0
            CHANNELS 3 Zrotation Xrotation Yrotation
            JOINT RightShoulder
            {
              OFFSET 2.46616 -1.6653 3.69651
              CHANNELS 3 Zrotation Xrotation Yrotation
              JOINT RightArm
              {
                OFFSET 13.0012 0 0
                CHANNELS 3 Zrotation Xrotation Yrotation
                JOINT RightForeArm
                {
                  OFFSET 28.7848 1.62311e-005 0
                  CHANNELS 3 Zrotation Xrotation Yrotation
                  JOINT RightHand
                  {
                    OFFSET 26.5688 1.62095e-005 0
                    CHANNELS 3 Zrotation Xrotation Yrotation
                    End Site
                    {
                      OFFSET 0 0 0
                    }
                  }
                }
              }
            }
            JOINT LeftShoulder
            {
              OFFSET 2.38034 -1.29275 -3.7523
              CHANNELS 3 Zrotation Xrotation Yrotation
              JOINT LeftArm
              {
                OFFSET 16.3182 6.07031e-005 0
                CHANNELS 3 Zrotation Xrotation Yrotation
                JOINT LeftForeArm
                {
                  OFFSET 27.0901 0 0
                  CHANNELS 3 Zrotation Xrotation Yrotation
                  JOINT LeftHand
                  {
                    OFFSET 24.5451 1.51738e-005 0
                    CHANNELS 3 Zrotation Xrotation Yrotation
                    End Site
                    {
                      OFFSET 0 0 0
                    }
                  }
                }
              }
            }
            JOINT Neck
            {
              OFFSET 5.0226 -0.0266342 0
              CHANNELS 3 Zrotation Xrotation Yrotation
              JOINT Head
              {
                OFFSET 6.69364 2.86102e-005 0
                CHANNELS 3 Zrotation Xrotation Yrotation
                End Site
                {
                  OFFSET 0 0 0
                }
              }
            }
          }
        }
      }
    }
  }
}
MOTION
Frames:	9
Frame Time:	0.0416667
34.3623 101.662 -323.762 -176.056 -83.8006 -177.333 -173.478 -6.80359 91.0516 -6.75176 5.36291 0.00324625 66.6655 5.96855 1.78218 25.9162 -10.7423 16.5382 173.92 -3.86102 90.8596 -13.6998 -5.59088 0.473938 68.9421 -5.33233 -0.606854 25.5709 0.158758 3.71087 0.195843 7.53303 -89.9469 11.8077 0.414516 0.0619457 0.136856 0.416835 0.0436271 -22.3988 0.376727 0.183648 -2.3861 0.376735 0.183654 89.9357 -36.6367 -104.562 45.841 5.58545 -7.97843 -5.65287 -46.7988 -5.67116 -15.8062 1.6134 -17.3526 -86.6727 -57.238 84.7922 -26.6199 -11.9163 -16.4135 3.67194 41.921 -4.74709 -0.600678 -0.171571 -9.60756 2.97237 -3.39063 -1.91854 -7.98401 -2.95868 -1.24689 
33.3002 101.362 -323.078 -171.03 -82.9411 -173.132 -173.055 -7.62108 91.1018 -7.46525 4.9918 -0.33805 67.3529 7.9676 4.34422 25.7758 -7.67595 11.2313 173.15 -3.99561 90.1238 -16.063 -6.46693 0.739508 70.9278 -5.85081 -0.248243 24.8204 0.391893 3.89429 0.244847 7.60857 -89.872 11.6566 0.547095 0.198226 -0.0142436 0.555294 0.173943 -22.55 0.462225 0.353487 -2.53735 0.46223 0.35349 87.8647 -36.5184 -108.333 45.7322 6.20676 -5.90341 -6.03557 -51.2093 -5.93672 -24.1206 2.24516 -15.9535 -86.6058 -58.9083 85.112 -22.6274 -13.9877 -14.5679 3.51166 39.0587 -4.5853 -4.64125 0.137772 -15.8981 1.73307 -3.00576 -0.923205 -7.42997 -2.77105 -1.09966 
32.0443 100.805 -322.34 -175.25 -82.6413 -177.739 -172.039 -5.93377 92.8603 -11.6672 5.86382 -0.532698 67.9576 9.57766 4.18478 27.79 -6.97791 12.3531 173.079 -3.62474 90.4165 -18.9102 -5.86452 0.914699 72.9416 -6.3062 -0.500938 23.6888 0.931061 3.62006 0.302464 7.73641 -89.8101 11.4002 0.690491 0.30792 -0.27064 0.703373 0.277226 -22.8066 0.566018 0.501201 -2.79391 0.566026 0.501212 88.1548 -36.1293 -107.953 45.8937 6.07887 -6.11678 -5.99287 -50.7506 -5.90547 -23.2861 2.26902 -16.5122 -86.2303 -58.409 85.5599 -22.2253 -14.1922 -14.0714 3.34132 35.6446 -4.4143 0.067404 -0.298747 -13.8565 2.46423 -2.80232 -0.304461 -7.73209 -2.66628 -0.989527 
31.1896 100.439 -321.73 177.766 -82.8374 175.325 -172.399 1.51683 90.7934 -25.0197 4.12198 0.141261 69.305 8.50186 -0.141883 28.463 -7.45027 14.0098 173.067 -3.61957 90.9906 -19.5243 -4.86728 1.28785 74.0098 -6.80234 -0.730396 24.0361 0.445555 4.64655 0.332997 7.7916 -89.8838 11.2903 0.716884 0.160276 -0.380455 0.723248 0.128562 -22.9168 0.635569 0.368331 -2.9042 0.635572 0.368329 87.6027 -36.071 -108.969 44.4576 6.85183 -5.54104 -5.95851 -50.3817 -5.88201 -21.9214 2.13511 -16.5485 -86.1518 -58.6161 85.6944 -20.7813 -14.8965 -12.8857 3.22901 33.6733 -4.28673 0.231311 -0.318749 -14.3799 2.28688 -2.45911 0.598111 -7.3157 -2.47143 -0.997949 
30.584 100.433 -320.885 164.999 -83.1263 161.884 -174.108 9.0424 91.2182 -37.2062 4.89754 0.980291 68.1758 6.2609 -1.54896 26.4165 -7.1027 10.9649 173.16 -4.70057 91.0668 -17.5473 -2.79831 1.2207 74.3506 -7.07409 -0.459209 24.1668 0.451594 4.47509 0.417986 7.8075 -89.8786 11.2585 0.88839 0.153781 -0.412152 0.894297 0.114522 -22.9493 0.801097 0.413688 -2.93665 0.801092 0.413676 87.9732 -35.1586 -108.645 45.091 6.67189 -5.20153 -5.42291 -43.7605 -5.5242 -21.1318 2.37771 -18.3255 -86.0407 -58.2623 85.8019 -20.1829 -15.1946 -11.2959 3.25206 31.8054 -4.38995 1.19773 -0.401881 -14.3357 1.8725 -2.50596 0.951525 -7.03742 -2.55161 -1.44543 
30.6562 100.644 -319.542 158.545 -83.555 153.798 -175.365 13.4204 87.6231 -36.6029 5.56295 0.173878 68.7658 5.52483 -5.52978 26.2112 -8.95093 13.9083 172.529 -5.07851 89.4909 -16.9027 -3.02233 0.878014 74.2691 -7.20765 -0.602977 25.4037 0.303973 3.46944 0.678522 7.86191 -89.8077 11.1492 1.43988 0.242244 -0.521002 1.44915 0.178616 -23.0615 1.3005 0.663854 -3.04881 1.3005 0.663853 87.7409 -34.9217 -109.16 44.2809 6.57933 -6.90452 -5.53052 -45.2222 -5.5917 -20.938 2.19315 -17.4412 -85.946 -58.1037 85.9123 -20.027 -15.2815 -10.158 3.14535 30.6728 -4.23635 1.68602 -0.45378 -14.5894 2.06039 -3.09678 1.87805 -7.02621 -3.25595 -1.97845 
31.0094 100.422 -317.293 146.394 -83.6726 140.511 -176.967 15.868 83.7653 -26.4297 8.78875 -0.907573 65.5068 4.05935 -3.00908 24.6623 -8.57988 11.6071 172.16 -5.73599 88.4814 -16.8478 -1.63326 0.530548 75.3988 -7.71956 -0.429061 26.2644 -0.0549911 3.51381 0.812026 7.91057 -89.8021 11.0519 1.70821 0.229188 -0.617934 1.71664 0.153757 -23.1608 1.56034 0.732104 -3.14813 1.56033 0.732088 87.412 -34.7978 -109.81 43.0574 6.18922 -10.6488 -5.55588 -45.556 -5.60792 -19.6705 2.39038 -19.4348 -85.7129 -58.3106 86.2585 -19.7964 -15.4095 -7.90719 3.09721 30.2495 -4.16035 1.65195 -0.463948 -14.9907 2.61899 -3.12908 3.14261 -6.20853 -3.51452 -1.84772 
31.4581 99.8521 -314.076 139.549 -83.6812 133.428 -178.833 15.998 81.2888 -12.3615 9.72884 -1.63209 64.2332 4.47685 -0.367822 19.4184 -8.85365 6.44112 171.785 -7.30873 88.0988 -17.0082 -0.934397 0.461984 76.91 -8.76121 -0.762936 28.22 -1.10086 4.51017 0.996757 7.96036 -89.9298 10.9551 2.01693 -0.051861 -0.714273 2.01269 -0.140625 -23.2613 1.93923 0.556944 -3.24866 1.93922 0.556929 87.6604 -34.2827 -109.559 42.107 5.64337 -14.6849 -5.53942 -45.3409 -5.59764 -20.3876 2.65311 -20.3771 -86.2092 -59.6103 85.743 -19.357 -15.6084 -5.19785 3.12389 30.85 -4.18975 0.811728 -0.34685 -13.5391 2.49729 -3.14766 4.43299 -4.46123 -3.75627 -2.15292 
31.7162 98.9332 -309.477 147.157 -84.2909 141.447 -178.889 17.3847 80.7268 -7.86484 7.02112 -2.79507 64.6714 4.24454 -1.59762 17.858 -10.2545 7.06 172.389 -10.7166 88.7083 -16.4643 -0.0983871 -0.428995 78.7489 -10.0277 -0.264141 29.6228 -1.40818 3.70905 1.14511 8.00743 -89.9899 10.8628 2.28467 -0.194125 -0.806218 2.27391 -0.294548 -23.357 2.23734 0.501844 -3.34438 2.23733 0.501842 86.7823 -34.8249 -110.949 40.3006 5.79113 -18.1122 -5.81941 -48.809 -5.78368 -18.3012 2.55212 -21.5632 -86.0201 -60.3801 86.0933 -19.2751 -15.6645 -1.97797 3.16358 31.8096 -4.23029 0.645474 -0.26789 -11.0952 2.58332 -2.86961 4.17995 -3.84194 -3.45092 -2.23075 
